<?xml version="1.0" standalone="no"?>
<!DOCTYPE svg PUBLIC "-//W3C//DTD SVG 20010904//EN"
 "http://www.w3.org/TR/2001/REC-SVG-20010904/DTD/svg10.dtd">
<svg version="1.0" xmlns="http://www.w3.org/2000/svg"
 width="512.000000pt" height="512.000000pt" viewBox="0 0 512.000000 512.000000"
 preserveAspectRatio="xMidYMid meet">

<g transform="translate(0.000000,512.000000) scale(0.100000,-0.100000)"
fill="#000000" stroke="none">
<path d="M1785 4506 c-38 -17 -80 -62 -94 -99 -6 -16 -11 -98 -11 -183 0 -134
3 -160 20 -194 27 -53 72 -83 134 -88 66 -5 115 15 152 64 l29 37 3 174 c3
161 2 176 -18 211 -42 74 -143 112 -215 78z"/>
<path d="M605 4016 c-87 -39 -126 -136 -90 -224 19 -45 196 -226 247 -253 145
-75 304 84 229 229 -27 51 -208 228 -253 247 -45 18 -93 19 -133 1z"/>
<path d="M3000 3893 c-182 -23 -338 -101 -467 -233 l-52 -52 -28 20 c-97 68
-290 141 -433 163 -119 18 -335 7 -452 -24 -385 -101 -697 -411 -804 -797 -31
-115 -43 -339 -25 -460 36 -235 151 -460 320 -625 112 -110 214 -180 347 -239
l42 -18 -5 -97 c-9 -169 35 -347 124 -501 54 -92 218 -254 313 -307 94 -53
194 -88 306 -108 130 -22 2058 -22 2188 0 202 35 335 105 481 250 145 145 217
282 251 477 68 389 -153 797 -516 955 -33 14 -60 29 -60 33 0 4 16 41 35 81
115 245 95 529 -53 746 -152 223 -388 347 -655 342 l-98 -2 -40 59 c-75 109
-187 208 -296 263 -104 52 -311 89 -423 74z m240 -371 c106 -42 189 -129 240
-253 33 -78 58 -112 102 -135 35 -18 104 -18 156 0 176 63 386 -10 487 -168
46 -74 67 -146 66 -228 -2 -107 -28 -186 -89 -267 -26 -33 -108 -101 -123
-101 -4 0 -28 30 -52 68 -179 276 -481 429 -806 409 -53 -4 -129 -16 -170 -27
-40 -11 -75 -19 -77 -17 -2 2 -11 40 -19 84 -28 147 -91 300 -177 426 l-39 57
21 30 c38 54 121 109 205 137 59 19 207 11 275 -15z m-1182 -92 c260 -73 461
-273 543 -540 19 -61 24 -98 24 -200 l0 -126 -47 -62 c-26 -35 -57 -80 -68
-100 l-21 -38 -132 4 c-150 4 -226 -8 -352 -57 -147 -56 -298 -173 -394 -304
l-42 -57 -78 40 c-191 99 -340 288 -397 500 -27 101 -25 292 4 395 83 289 328
511 624 565 80 14 252 4 336 -20z m1384 -952 c141 -43 256 -143 319 -278 78
-165 83 -173 130 -198 51 -27 83 -26 203 7 99 26 171 27 270 1 101 -26 177
-69 251 -144 208 -211 209 -548 4 -756 -31 -32 -85 -74 -120 -93 -125 -70 -70
-67 -1219 -67 -898 0 -1044 2 -1095 15 -176 46 -326 194 -379 374 -20 69 -21
209 -1 284 23 90 70 172 138 240 76 78 151 121 253 148 94 24 201 21 304 -11
82 -25 113 -25 166 1 48 23 75 60 103 142 94 273 391 421 673 335z"/>
<path d="M95 2830 c-119 -59 -125 -228 -10 -296 43 -25 47 -25 218 -22 l174 3
37 29 c99 75 83 237 -27 290 -28 13 -67 16 -194 16 -138 0 -163 -3 -198 -20z"/>
<path d="M764 1820 c-52 -26 -229 -206 -249 -253 -58 -139 81 -280 221 -227
38 15 231 206 255 252 41 80 9 183 -71 225 -53 28 -102 29 -156 3z"/>
</g>
</svg>
